<?xml version="1.0" standalone="no"?>
<!DOCTYPE svg PUBLIC "-//W3C//DTD SVG 20010904//EN"
 "http://www.w3.org/TR/2001/REC-SVG-20010904/DTD/svg10.dtd">
<svg version="1.0" xmlns="http://www.w3.org/2000/svg"
 width="800.000000pt" height="800.000000pt" viewBox="0 0 800.000000 800.000000"
 preserveAspectRatio="xMidYMid meet">

<g transform="translate(0.000000,800.000000) scale(0.100000,-0.100000)"
fill="#000000" stroke="none">
<path d="M3802 6329 c-24 -12 -68 -50 -100 -88 -96 -111 -147 -157 -205 -185
l-56 -26 -388 0 c-367 0 -390 -1 -420 -20 -55 -33 -63 -62 -63 -220 l0 -140
465 0 c256 0 465 4 465 9 0 17 125 143 184 186 85 60 195 111 283 131 115 25
302 16 411 -21 139 -47 261 -132 362 -252 l44 -53 339 0 338 0 -3 150 -3 150
-38 37 c-37 38 -38 38 -127 41 -85 4 -90 5 -90 26 0 44 -20 57 -85 54 l-60 -3
-5 -35 -5 -35 -105 -3 c-99 -3 -107 -1 -166 28 -48 24 -84 54 -168 144 -58 62
-121 121 -140 130 -29 14 -78 16 -328 16 -279 0 -295 -1 -336 -21z m643 -79
c33 -20 125 -124 125 -141 0 -11 -857 -12 -864 -1 -7 11 112 142 138 152 12 5
144 9 295 9 257 1 276 0 306 -19z m733 -183 c2 -19 -1 -27 -12 -27 -11 0 -16
10 -16 31 0 38 24 35 28 -4z m21 -126 c52 -29 71 -135 32 -190 -69 -97 -231
-57 -241 59 -5 53 1 71 33 106 47 52 109 61 176 25z"/>
<path d="M3797 6191 c-34 -33 -59 -62 -56 -65 3 -4 185 -5 404 -4 l398 3 -59
63 -60 62 -283 0 -283 0 -61 -59z m613 39 c0 -5 6 -10 13 -10 11 -1 46 -33 76
-72 13 -17 -6 -18 -358 -18 -204 0 -371 3 -371 8 0 12 68 82 79 82 6 0 11 5
11 10 0 6 98 10 275 10 177 0 275 -4 275 -10z"/>
<path d="M5030 5813 c0 -10 6 -25 13 -31 6 -7 12 -18 12 -25 0 -7 9 -11 19 -9
12 2 16 -1 10 -9 -5 -9 -2 -10 10 -6 10 4 25 7 34 8 9 0 1 5 -18 12 -19 7 -44
27 -57 46 -18 26 -23 30 -23 14z"/>
<path d="M3057 6193 c-4 -3 -7 -17 -7 -30 l0 -23 -143 0 c-157 0 -167 -3 -167
-57 l0 -33 258 2 257 3 3 28 c5 40 -14 57 -63 57 -39 0 -43 2 -48 30 -6 27
-10 30 -45 30 -21 0 -42 -3 -45 -7z"/>
<path d="M4005 5966 c-261 -52 -475 -226 -572 -466 -78 -195 -65 -444 33 -631
174 -330 548 -479 912 -364 109 35 194 88 288 180 92 91 150 182 190 300 35
103 44 280 20 393 -58 276 -288 513 -559 577 -93 22 -231 27 -312 11z m280
-46 c144 -32 243 -87 351 -195 76 -76 98 -105 138 -185 55 -112 76 -201 76
-326 1 -431 -390 -765 -818 -700 -168 26 -272 78 -393 196 -147 144 -213 301
-213 510 -1 204 65 363 208 504 111 109 232 173 382 200 109 20 165 19 269 -4z"/>
<path d="M4122 5863 c2 -10 10 -18 18 -18 8 0 16 8 18 18 2 12 -3 17 -18 17
-15 0 -20 -5 -18 -17z"/>
<path d="M4005 5803 c-217 -46 -399 -228 -451 -450 -21 -91 -14 -235 16 -323
88 -258 341 -427 610 -407 103 7 194 38 281 95 90 59 154 128 202 220 50 95
68 169 68 282 0 171 -55 306 -175 425 -148 146 -344 203 -551 158z m266 -143
c332 -102 437 -520 193 -764 -244 -244 -663 -143 -765 185 -34 110 -21 256 31
360 27 52 103 132 160 169 108 70 256 89 381 50z m269 -80 c0 -5 -4 -10 -10
-10 -5 0 -10 5 -10 10 0 6 5 10 10 10 6 0 10 -4 10 -10z m65 -80 c3 -5 1 -10
-4 -10 -6 0 -11 5 -11 10 0 6 2 10 4 10 3 0 8 -4 11 -10z m35 -64 c0 -3 -4 -8
-10 -11 -5 -3 -10 -1 -10 4 0 6 5 11 10 11 6 0 10 -2 10 -4z m10 -36 c0 -5 -4
-10 -10 -10 -5 0 -10 5 -10 10 0 6 5 10 10 10 6 0 10 -4 10 -10z m10 -30 c0
-5 -4 -10 -10 -10 -5 0 -10 5 -10 10 0 6 5 10 10 10 6 0 10 -4 10 -10z m-477
-652 l21 -28 -21 -27 c-11 -16 -29 -29 -41 -31 -25 -4 -62 30 -62 58 0 28 37
62 62 58 12 -2 30 -15 41 -30z"/>
<path d="M4139 5656 c-2 -2 -22 -6 -44 -9 -22 -3 -57 -13 -78 -22 -21 -8 -42
-13 -47 -10 -6 4 -10 2 -10 -4 0 -6 -6 -8 -14 -5 -8 3 -17 0 -22 -7 -4 -8 -3
-10 4 -5 7 4 12 5 12 2 0 -3 -10 -10 -21 -17 -17 -9 -20 -8 -14 1 15 24 -56
-25 -93 -64 -20 -22 -29 -34 -19 -27 10 8 17 9 17 3 0 -11 -19 -27 -32 -27 -3
0 -10 -4 -15 -9 -5 -5 -3 -6 5 -2 15 9 15 1 1 -25 -5 -11 -14 -17 -19 -14 -6
3 -7 0 -5 -7 3 -8 -1 -33 -10 -57 -8 -24 -16 -58 -16 -75 l-2 -31 -8 35 c-5
23 -7 -1 -5 -70 2 -73 8 -118 21 -148 9 -24 19 -41 21 -39 3 2 -3 20 -11 40
-8 20 -15 42 -15 49 0 7 11 -13 24 -45 51 -123 134 -203 255 -244 36 -12 57
-23 46 -24 -40 -2 28 -17 85 -18 103 -2 239 48 292 107 23 25 22 25 -11 -1
-34 -28 -103 -67 -118 -67 -4 0 16 14 46 30 58 32 167 129 189 169 8 13 10 21
4 17 -5 -3 -2 19 7 49 9 30 18 48 21 40 3 -8 5 32 5 89 0 57 -4 99 -8 93 -5
-7 -5 3 -2 22 5 25 4 32 -5 26 -9 -5 -10 -2 -6 12 8 25 -55 129 -75 125 -8 -2
-11 0 -7 3 11 12 -12 47 -27 41 -7 -2 -19 3 -27 12 -12 16 -11 16 7 2 19 -14
20 -14 2 6 -23 27 -103 71 -164 89 -45 14 -105 20 -114 11z m-59 -72 c0 -21
-29 -49 -88 -83 -37 -22 -96 -63 -130 -91 -35 -28 -66 -49 -69 -47 -16 17 68
123 131 166 55 38 156 74 156 55z m-190 -18 c0 -2 -19 -19 -42 -36 l-43 -32
39 36 c38 35 46 40 46 32z m625 -415 c-23 -130 -129 -250 -259 -294 -51 -18
-196 -24 -196 -9 0 5 14 25 31 45 27 32 38 37 73 37 54 0 132 38 179 86 39 41
77 108 77 138 0 20 54 46 82 38 17 -4 19 -10 13 -41z m-798 -8 c-3 -10 -5 -2
-5 17 0 19 2 27 5 18 2 -10 2 -26 0 -35z m526 -340 c-7 -2 -19 -2 -25 0 -7 3
-2 5 12 5 14 0 19 -2 13 -5z m-125 -10 c-10 -2 -26 -2 -35 0 -10 3 -2 5 17 5
19 0 27 -2 18 -5z m70 0 c-10 -2 -26 -2 -35 0 -10 3 -2 5 17 5 19 0 27 -2 18
-5z"/>
<path d="M3716 5354 c-4 -14 -5 -28 -3 -31 3 -2 8 8 11 23 4 14 5 28 3 31 -3
2 -8 -8 -11 -23z"/>
<path d="M4573 5215 c0 -33 2 -45 4 -27 2 18 2 45 0 60 -2 15 -4 0 -4 -33z"/>
<path d="M3767 4982 c24 -45 110 -125 162 -152 24 -12 44 -20 46 -18 2 2 -20
16 -50 32 -50 26 -115 86 -158 146 -17 24 -17 24 0 -8z"/>
<path d="M4469 4943 l-24 -28 28 24 c25 23 32 31 24 31 -2 0 -14 -12 -28 -27z"/>
<path d="M3998 4803 c7 -3 16 -2 19 1 4 3 -2 6 -13 5 -11 0 -14 -3 -6 -6z"/>
<path d="M4105 4720 c-20 -22 -19 -43 4 -64 23 -21 56 -14 71 15 23 43 -42 86
-75 49z"/>
<path d="M4168 4533 c12 -2 30 -2 40 0 9 3 -1 5 -23 4 -22 0 -30 -2 -17 -4z"/>
<path d="M2570 5125 l0 -485 527 0 527 0 -49 50 -49 50 -171 0 c-184 0 -215 8
-215 53 0 49 10 52 165 55 106 3 145 7 142 15 -2 8 -47 13 -142 15 -81 1 -144
7 -152 14 -18 14 -19 308 -1 326 8 8 47 12 109 12 l98 0 6 48 c10 86 42 206
69 261 14 30 26 58 26 63 0 4 -200 8 -445 8 l-445 0 0 -485z"/>
<path d="M4810 5607 c0 -2 11 -25 24 -53 40 -83 67 -185 73 -277 4 -61 10 -90
20 -94 20 -8 16 -51 -7 -65 -24 -15 -26 -45 -4 -69 19 -21 12 -69 -10 -69 -7
0 -20 -7 -27 -16 -11 -13 -11 -20 2 -43 19 -33 9 -71 -19 -71 -32 0 -46 -25
-34 -59 12 -34 -4 -54 -49 -65 -31 -7 -39 -22 -32 -59 l5 -27 354 0 354 0 0
485 0 485 -325 0 c-179 0 -325 -1 -325 -3z"/>
<path d="M3164 5197 c-2 -7 -3 -76 -2 -152 l3 -140 134 -3 c125 -2 133 -1 126
15 -21 52 -46 145 -51 193 -11 108 -2 100 -110 100 -68 0 -96 -4 -100 -13z
m86 -25 c0 -4 -12 -8 -27 -7 l-28 0 -6 -110 -5 -110 -2 106 c-1 71 2 109 10
117 13 13 58 16 58 4z m-5 -242 c-3 -5 -14 -10 -23 -9 -14 0 -13 2 3 9 27 11
27 11 20 0z"/>
<path d="M3160 4795 l0 -25 170 0 c94 0 170 3 170 8 0 4 -7 15 -14 25 -12 15
-32 17 -170 17 l-156 0 0 -25z"/>
<path d="M2570 4530 c0 -83 17 -122 63 -150 31 -20 61 -20 1375 -20 1458 0
1367 -4 1422 55 21 23 25 38 29 106 l3 79 -406 0 c-388 0 -406 -1 -406 -18 0
-11 -8 -26 -19 -36 -15 -13 -24 -14 -46 -6 -31 12 -55 -1 -55 -30 0 -32 -27
-45 -66 -31 -38 14 -58 5 -69 -30 -7 -22 -47 -26 -64 -5 -9 11 -39 12 -144 8
-186 -7 -310 24 -456 112 l-59 36 -551 0 -551 0 0 -70z"/>
<path d="M2467 3919 c-51 -12 -92 -34 -157 -85 -111 -88 -188 -245 -197 -404
-11 -185 31 -237 350 -431 127 -77 209 -155 249 -237 29 -59 33 -76 32 -147 0
-93 -20 -142 -78 -193 -46 -40 -132 -66 -189 -57 -66 11 -198 79 -299 155 -51
38 -93 68 -94 67 -5 -6 -114 -308 -114 -315 0 -19 290 -182 324 -182 8 0 21
-6 28 -13 37 -36 185 -71 271 -63 68 6 197 43 197 56 0 4 21 15 47 25 30 12
72 43 118 89 117 115 175 261 175 441 0 220 -72 318 -357 488 -86 50 -173 109
-195 130 -70 68 -91 143 -67 232 32 115 154 175 291 142 l57 -14 46 93 c25 51
45 97 45 101 0 14 -101 71 -164 93 -58 20 -193 41 -251 39 -16 -1 -47 -5 -68
-10z"/>
<path d="M4193 3811 c-83 -9 -153 -18 -156 -21 -2 -3 -17 -61 -31 -130 -15
-69 -39 -177 -53 -240 -14 -63 -30 -139 -35 -167 -16 -86 -4 -110 -174 315
-48 116 -91 212 -97 212 -18 0 -301 -81 -308 -89 -4 -3 -19 -229 -34 -501 -14
-272 -35 -641 -45 -820 -10 -178 -18 -326 -16 -327 4 -4 341 -30 345 -27 2 2
-2 265 -9 584 -7 319 -11 583 -8 585 6 6 45 -91 98 -240 18 -49 38 -103 45
-120 7 -16 27 -68 43 -115 17 -47 36 -98 43 -115 7 -16 20 -52 29 -80 l16 -50
134 -6 c74 -4 138 -4 141 0 3 3 18 175 33 381 28 376 38 478 48 450 3 -8 38
-226 78 -485 40 -258 81 -522 92 -585 10 -63 21 -139 25 -167 3 -29 11 -53 17
-53 20 0 241 63 246 70 3 4 16 11 30 16 l26 9 -107 693 c-59 382 -119 772
-135 868 l-27 174 -51 -1 c-28 -1 -119 -9 -203 -18z"/>
<path d="M5467 3715 c-87 -18 -198 -72 -265 -129 -30 -25 -57 -46 -60 -46 -4
0 -12 -8 -17 -19 -6 -10 -33 -49 -61 -86 -139 -183 -204 -413 -204 -715 0
-367 70 -629 218 -812 26 -32 50 -58 53 -58 3 0 18 -11 33 -25 61 -56 198
-105 297 -105 90 0 329 80 329 111 0 5 6 9 14 9 17 0 146 101 196 154 41 43
47 28 -80 190 -49 64 -90 120 -90 127 0 6 -20 -15 -44 -48 -77 -105 -195 -171
-280 -158 -108 18 -187 85 -246 210 -50 103 -70 205 -70 347 1 238 70 430 206
565 88 87 159 117 279 118 76 0 96 -4 129 -23 21 -13 42 -19 46 -15 18 20 111
246 106 258 -9 24 -124 103 -181 124 -58 22 -161 41 -210 40 -16 0 -60 -7 -98
-14z"/>
</g>
</svg>
